<?xml version="1.0" encoding="UTF-8"?>
<svg width="100pt" height="100pt" version="1.1" viewBox="0 0 100 100" xmlns="http://www.w3.org/2000/svg">
 <g>
  <path d="m88.215 60.188c-5.6367 0-10.223-4.5703-10.223-10.188s4.5859-10.188 10.223-10.188c5.6367 0 10.223 4.5703 10.223 10.188s-4.5859 10.188-10.223 10.188zm0-17.25c-3.9141 0-7.0977 3.168-7.0977 7.0625s3.1836 7.0625 7.0977 7.0625c3.9141 0 7.0977-3.168 7.0977-7.0625s-3.1836-7.0625-7.0977-7.0625z"/>
  <path d="m88.215 26.621c-5.6367 0-10.223-4.5703-10.223-10.188 0-5.6133 4.5859-10.184 10.223-10.184 5.6367 0 10.223 4.5703 10.223 10.188 0 5.6133-4.5859 10.184-10.223 10.184zm0-17.246c-3.9141 0-7.0977 3.168-7.0977 7.0625s3.1836 7.0625 7.0977 7.0625c3.9141-0.003906 7.0977-3.1719 7.0977-7.0625 0-3.8945-3.1836-7.0625-7.0977-7.0625z"/>
  <path d="m88.215 93.75c-5.6367 0-10.223-4.5703-10.223-10.188s4.5859-10.188 10.223-10.188c5.6367 0.003906 10.223 4.5703 10.223 10.188s-4.5859 10.188-10.223 10.188zm0-17.246c-3.9141 0-7.0977 3.168-7.0977 7.0625 0 3.8945 3.1836 7.0625 7.0977 7.0625 3.9141 0 7.0977-3.168 7.0977-7.0625 0-3.8945-3.1836-7.0625-7.0977-7.0625z"/>
  <path d="m11.785 60.188c-5.6367 0-10.223-4.5703-10.223-10.188s4.5859-10.188 10.223-10.188c5.6367 0 10.223 4.5703 10.223 10.188s-4.5859 10.188-10.223 10.188zm0-17.25c-3.9141 0-7.0977 3.168-7.0977 7.0625s3.1836 7.0625 7.0977 7.0625c3.9141 0 7.0977-3.168 7.0977-7.0625s-3.1836-7.0625-7.0977-7.0625z"/>
  <path d="m11.785 26.621c-5.6367 0-10.223-4.5664-10.223-10.184s4.5859-10.188 10.223-10.188c5.6367 0 10.223 4.5703 10.223 10.188 0 5.6133-4.5859 10.184-10.223 10.184zm0-17.246c-3.9141 0-7.0977 3.168-7.0977 7.0625s3.1836 7.0625 7.0977 7.0625c3.9141 0 7.0977-3.168 7.0977-7.0625s-3.1836-7.0625-7.0977-7.0625z"/>
  <path d="m11.785 93.75c-5.6367 0-10.223-4.5703-10.223-10.188s4.5859-10.188 10.223-10.188c5.6367 0 10.223 4.5703 10.223 10.188s-4.5859 10.188-10.223 10.188zm0-17.246c-3.9141 0-7.0977 3.168-7.0977 7.0625 0 3.8906 3.1836 7.0586 7.0977 7.0586 3.9141 0 7.0977-3.168 7.0977-7.0625 0-3.8906-3.1836-7.0586-7.0977-7.0586z"/>
  <path d="m72.066 53.195h-44.113c-0.86328 0-1.5625-0.69922-1.5625-1.5625 0-0.86328 0.69922-1.5625 1.5625-1.5625h44.113c0.86328 0 1.5625 0.69922 1.5625 1.5625 0 0.86328-0.69922 1.5625-1.5625 1.5625z"/>
  <path d="m67.25 57.203c-0.44922 0-0.89453-0.19141-1.2031-0.56641-0.55078-0.66406-0.46094-1.6484 0.20312-2.1992l3.3672-2.793-3.3867-2.8125c-0.66406-0.55078-0.75391-1.5352-0.20312-2.1992 0.55078-0.66406 1.5391-0.75391 2.1992-0.20312l4.8359 4.0156c0.35938 0.29688 0.56641 0.73828 0.56641 1.2031 0 0.46484-0.20703 0.90625-0.56641 1.2031l-4.8164 3.9961c-0.29297 0.23438-0.64453 0.35547-0.99609 0.35547z"/>
  <path d="m27.953 46.473c-0.57812 0-1.1367-0.32422-1.4062-0.88281-0.375-0.77734-0.050781-1.7109 0.72656-2.0859l44.379-21.48c0.77344-0.375 1.7109-0.050782 2.0859 0.72656s0.050781 1.7109-0.72656 2.0859l-44.379 21.48c-0.21875 0.10547-0.44922 0.15625-0.67969 0.15625z"/>
  <path d="m70.324 30.312c-0.18359 0-0.37109-0.03125-0.55078-0.10156-0.80859-0.30469-1.2148-1.207-0.91016-2.0156l1.4531-3.8516-3.8984-1.4609c-0.80859-0.30469-1.2188-1.2031-0.91406-2.0117 0.30469-0.80859 1.207-1.2188 2.0117-0.91406l5.3633 2.0078c0.39062 0.14453 0.70312 0.44141 0.875 0.81641 0.17188 0.37891 0.18359 0.80859 0.039063 1.1992l-2.0078 5.3164c-0.23438 0.62891-0.83203 1.0156-1.4609 1.0156z"/>
  <path d="m26.551 85.969c-0.86328 0-1.5625-0.69922-1.5625-1.5625s0.69922-1.5625 1.5625-1.5625l45.516-0.007812c0.86328 0 1.5625 0.69922 1.5625 1.5625 0 0.86328-0.69922 1.5625-1.5625 1.5625z"/>
  <path d="m31.297 90.695c-0.39844 0-0.79688-0.15234-1.1016-0.45703l-4.7461-4.7266c-0.29297-0.29297-0.46094-0.69141-0.46094-1.1055s0.16406-0.8125 0.46094-1.1055l4.7656-4.7461c0.61328-0.60938 1.6016-0.60547 2.2109 0.003906 0.60938 0.61328 0.60547 1.6016-0.003906 2.2109l-3.6523 3.6367 3.6328 3.6172c0.61328 0.60937 0.61328 1.5977 0.003906 2.2109-0.30859 0.30859-0.71094 0.46094-1.1094 0.46094z"/>
  <path d="m72.066 74.965c-0.14453 0-0.28906-0.019532-0.42969-0.0625l-44.113-12.645c-0.83203-0.23828-1.3086-1.1016-1.0703-1.9336 0.23828-0.82812 1.1094-1.3086 1.9336-1.0703l44.113 12.645c0.83203 0.23828 1.3086 1.1016 1.0703 1.9336-0.19922 0.6875-0.82422 1.1328-1.5039 1.1328z"/>
  <path d="m31.203 67.23c-0.50781 0-1.0039-0.24609-1.3047-0.69922l-3.2461-4.9141c-0.25781-0.38672-0.32812-0.86719-0.19141-1.3125 0.13281-0.44531 0.45703-0.80469 0.88672-0.98828l5.7578-2.4492c0.79297-0.33594 1.7109 0.03125 2.0508 0.82812 0.33594 0.79297-0.03125 1.7109-0.82812 2.0508l-4.0312 1.7148 2.2109 3.3477c0.47656 0.71875 0.27734 1.6875-0.44141 2.1641-0.26953 0.17578-0.56641 0.25781-0.86328 0.25781z"/>
  <path d="m74.465 41.461c-0.17188 0-0.34766-0.027344-0.51562-0.089844l-47.918-16.816c-0.8125-0.28516-1.2422-1.1758-0.95703-1.9922 0.28516-0.8125 1.1797-1.2422 1.9922-0.95703l47.914 16.816c0.8125 0.28516 1.2422 1.1758 0.95703 1.9922-0.22266 0.64453-0.82812 1.0469-1.4727 1.0469z"/>
  <path d="m69.074 43.348c-0.64453 0-1.25-0.40234-1.4766-1.0469-0.28516-0.8125 0.14453-1.707 0.96094-1.9922l3.9102-1.3672-1.3828-3.9141c-0.28906-0.8125 0.14062-1.707 0.95312-1.9922 0.81641-0.28906 1.707 0.14062 1.9922 0.95312l1.9062 5.3906c0.13672 0.39062 0.11328 0.82031-0.066406 1.1953-0.17969 0.375-0.5 0.66016-0.89453 0.79688l-5.3906 1.8867c-0.16797 0.058594-0.33984 0.089844-0.51172 0.089844z"/>
  <path d="m72.066 16.426h-46.531c-0.86328 0-1.5625-0.69922-1.5625-1.5625s0.69922-1.5625 1.5625-1.5625h46.531c0.86328 0 1.5625 0.69922 1.5625 1.5625s-0.69922 1.5625-1.5625 1.5625z"/>
  <path d="m30.371 20.441c-0.35156 0-0.70703-0.11719-0.99609-0.35938l-4.8359-4.0156c-0.35937-0.29688-0.56641-0.73828-0.56641-1.2031 0-0.46484 0.20703-0.90625 0.56641-1.2031l4.8164-3.9961c0.66406-0.55078 1.6484-0.46094 2.1992 0.20313 0.55078 0.66406 0.46094 1.6484-0.20313 2.1992l-3.3672 2.793 3.3867 2.8125c0.66406 0.55078 0.75391 1.5352 0.20312 2.1992-0.30859 0.37891-0.75391 0.57031-1.2031 0.57031z"/>
 </g>
</svg>
